<svg xmlns="http://www.w3.org/2000/svg" data-name="Layer 1" viewBox="0 0 100 125" x="0px" y="0px"><title>Artboard 23</title><path d="M31.41,31.51H30.24V30.34a.88.88,0,1,0-1.76,0v1.17H27.31a.88.88,0,1,0,0,1.76h1.17v1.18a.88.88,0,0,0,1.76,0V33.27h1.17a.88.88,0,1,0,0-1.76ZM92.55,92.24H77.7V56A26.38,26.38,0,0,0,83,39.49C83,17,51.61,6.48,50.27,6a1,1,0,0,0-.54,0C48.39,6.48,17,17,17,39.49A26.38,26.38,0,0,0,22.3,56V92.24H7.45a.88.88,0,0,0,0,1.76h85.1a.88.88,0,1,0,0-1.76Zm-57,0h-5.1c.74-1.29,3.75-4.28,6.65-6.78a9.81,9.81,0,0,0,2.63.76Zm2.14,0,4.1-5.9h13.7a.88.88,0,1,0,0-1.76H41.31c-5.53,0-8.48-4.93-8.48-8.49V57.89A19.73,19.73,0,0,1,36.45,46l8.27,6.21c.19,1.14.36,2.16.52,3.07l0-.07a.87.87,0,0,0-1.1-.58.88.88,0,0,0-.58,1.1,30.86,30.86,0,0,0,3.13,7.13l.05.09.09.11a4,4,0,0,0,2.1,1.73c2.27.5,6.8-4.45,9.19-7.3l.09.1h0l3.54,3.54c-2.46,3.09-8.2,9.23-12.55,9.65h0a4.59,4.59,0,0,1-.74,0c-4.6-.29-8.31-9-9.35-12.39a.88.88,0,1,0-1.68.52c.16.54,4.16,13.17,10.9,13.63v1.82c-1.81-.05-3,0-3.17,0a.88.88,0,1,0,.05,1.76c.14,0,13.34-.37,20.07,3.6,3.28,1.94,5.1,5.43,4.32,8.3-.74,2.68-3.58,4.22-7.81,4.22ZM42.06,35.6a10.35,10.35,0,0,0-5.33,2.64c.18-4.52,3.05-7.89,6.84-7.89,3.1,0,5.59,2.25,6.5,5.54A21.48,21.48,0,0,0,42.06,35.6Zm8.34,2.19c0,.29,0,.59,0,.89,0,4.94-3.08,9-6.87,9-3.24,0-6-3-6.67-6.92a8.37,8.37,0,0,1,5.47-3.39A20.34,20.34,0,0,1,50.4,37.79Zm12.5,18.4A.87.87,0,0,0,64.12,56a8.68,8.68,0,0,0,1.33-2.9.64.64,0,0,0,.18-.1c1.51-1.35,2.47-1.49,2.62-1.39s.18.55-.29,1.66c-.82,1.95-4,4.62-5.71,5.92l-2.33-2.32c1.48-2.22,3.14-4.15,3.84-4.45A5.46,5.46,0,0,1,62.67,55,.88.88,0,0,0,62.9,56.19Zm13.23-1a.92.92,0,0,0-.19.55V92.24h-7.4a6.52,6.52,0,0,0,2.71-3.76c1-3.67-1.1-7.9-5.11-10.28-4.51-2.66-11.43-3.5-16.09-3.75v-2C56.3,71.17,63.28,62,63.6,61.58a.88.88,0,0,0-.08-1.15h0c1.61-1.23,5.07-4.07,6.09-6.5s.23-3.39-.31-3.77c-1-.71-2.52-.33-4.23,1a1.74,1.74,0,0,0-.54-.42c-1.31-.66-3.29,1-5.86,4.83h0a.9.9,0,0,0-1.31.07c-3.35,4.12-7.14,7.59-8.07,7.44-.28-.06-.63-.41-1-1-.2-.78-1.24-6.82-1.86-10.54a.92.92,0,0,0-.34-.56l-2.17-1.63c4.61-.2,8.31-4.92,8.31-10.7a11.49,11.49,0,0,0-.11-1.57.63.63,0,0,0,0-.27c-.7-4.81-4.11-8.25-8.49-8.25-4.91,0-8.62,4.34-8.62,10.09a13.14,13.14,0,0,0,.14,1.89.77.77,0,0,0,0,.15,12.08,12.08,0,0,0,1,3.24.88.88,0,0,0-.4.22c-.19.19-4.61,4.83-4.61,13.71v18.2a10.85,10.85,0,0,0,4.39,8.44c-4.14,3.58-6.43,6.16-6.86,7.71H24.06V55.71a.92.92,0,0,0-.19-.55,24.58,24.58,0,0,1-5.13-15.67C18.74,19.3,46.91,8.89,50,7.81c3.09,1.08,31.26,11.47,31.26,31.68A24.58,24.58,0,0,1,76.13,55.16ZM54.59,16.64H53.42V15.47a.89.89,0,0,0-1.77,0v1.17H50.48a.88.88,0,1,0,0,1.76h1.17v1.18a.89.89,0,0,0,1.77,0V18.4h1.17a.88.88,0,0,0,0-1.76ZM71.24,39.55H70.07V38.38a.88.88,0,0,0-1.76,0v1.17H67.13a.89.89,0,0,0,0,1.77h1.18v1.17a.88.88,0,1,0,1.76,0V41.32h1.17a.89.89,0,0,0,0-1.77Z"/><text x="0" y="115" fill="#000000" font-size="5px" font-weight="bold" font-family="'Helvetica Neue', Helvetica, Arial-Unicode, Arial, Sans-serif">Created by Naufal Hudallah</text><text x="0" y="120" fill="#000000" font-size="5px" font-weight="bold" font-family="'Helvetica Neue', Helvetica, Arial-Unicode, Arial, Sans-serif">from the Noun Project</text></svg>