<?xml version="1.0" encoding="UTF-8"?>
<!DOCTYPE svg PUBLIC "-//W3C//DTD SVG 1.1//EN" "http://www.w3.org/Graphics/SVG/1.1/DTD/svg11.dtd">
<!-- Creator: CorelDRAW -->
<svg xmlns="http://www.w3.org/2000/svg" xml:space="preserve" width="2048px" height="2048px" style="shape-rendering:geometricPrecision; text-rendering:geometricPrecision; image-rendering:optimizeQuality; fill-rule:evenodd; clip-rule:evenodd"
viewBox="0 0 2048 2048"
 xmlns:xlink="http://www.w3.org/1999/xlink">
 <defs>
  <style type="text/css">
   <![CDATA[
    .fil3 {fill:none}
    .fil1 {fill:#424242}
    .fil0 {fill:#424242;fill-rule:nonzero}
    .fil2 {fill:#64B5F6;fill-rule:nonzero}
   ]]>
  </style>
 </defs>
 <g id="Layer_x0020_1">
  <metadata id="CorelCorpID_0Corel-Layer"/>
  <path class="fil0" d="M1769.25 1524.91c16.8437,-5.10827 26.3575,-22.9063 21.2492,-39.75 -5.10827,-16.8437 -22.9063,-26.3575 -39.75,-21.2492l-726.749 221.183 -726.751 -221.183c-16.8437,-5.10827 -34.6418,4.40552 -39.75,21.2492 -5.10827,16.8437 4.40552,34.6418 21.2492,39.75l733.238 223.158c6.55749,2.65984 14.0339,3.17599 21.3307,0.955513l-0.0377953 -0.124016 735.97 -223.989z"/>
  <path class="fil1" d="M918.501 1118.54l-204.125 -63.789 0 -66.9367 213.625 66.7583 0 65.4213c-3.14292,-0.0011811 -6.34016,-0.470079 -9.49961,-1.45394zm137.499 247.081c1.27087,0.774804 2.56536,1.5248 3.88465,2.24764 18.7347,10.265 42.241,15.1205 68.4461,13.6512 15.2032,-0.853938 31.441,-3.86457 48.2811,-9.21969 38.7957,-12.3354 74.3953,-35.2382 101.244,-62.9741 11.7413,-12.1287 21.8705,-25.2331 29.9457,-38.8548 6.91418,12.5374 16.5721,22.5473 28.3524,29.6858 14.4756,8.76969 31.9193,13.0547 51.1418,12.1949 13.5425,-0.604725 28.0134,-3.77008 42.9555,-9.73465 31.5792,-12.6059 60.4477,-35.8677 82.1197,-63.9733 10.5697,-13.7067 19.4858,-28.6323 26.2347,-44.1095 5.92796,7.61812 13.0878,13.9642 21.274,18.9248 14.4732,8.77087 31.9181,13.0559 51.1418,12.1961 13.5437,-0.604725 28.0146,-3.77126 42.9567,-9.73583 27.7925,-11.0941 53.4827,-30.4418 74.0186,-54.0815l0 332.569c0,17.6728 14.328,32.0008 32.0008,32.0008 17.6728,0 32.0008,-14.328 32.0008,-32.0008l0 -919.038c-5.03032,2.94095 -10.4728,5.30079 -16.1917,7.04056l-702.585 213.829 0.0389764 0.125197 -30.6272 9.3189c-13.3843,4.07363 -26.7449,3.06733 -39.9626,-0.955513l-702.655 -213.849 -0.0366142 0.121654 -30.6118 -9.31418c-1.31693,-0.401575 -2.61142,-0.840946 -3.88229,-1.31693l-9.48544 -2.88662 0 734.461 0 175.464c0,17.6728 14.328,32.0008 32.0008,32.0008 17.6728,0 32.0008,-14.328 32.0008,-32.0008l0 -325.571c20.5358,23.6398 46.226,42.9898 74.0197,54.0839 14.9421,5.96457 29.413,9.13111 42.9567,9.73583 19.2236,0.859843 36.6685,-3.4252 51.1418,-12.1961 37.3772,-22.65 11.0055,-22.1516 47.5087,25.1847 21.6721,28.1055 50.5406,51.3674 82.1197,63.9733 14.9421,5.96457 29.413,9.12993 42.9555,9.73465 19.2225,0.859843 36.6662,-3.4252 51.1418,-12.1949 11.7803,-7.13859 21.4382,-17.1484 28.3524,-29.6858 8.0752,13.6217 18.2043,26.726 29.9457,38.8548 26.8488,27.7358 62.4485,50.6386 101.244,62.9741 16.8402,5.35512 33.078,8.36575 48.2811,9.21969 26.2051,1.46929 49.7115,-3.38622 68.4461,-13.6512 1.31929,-0.722835 2.6126,-1.47284 3.88347,-2.24764l0 352.785c0,17.6728 14.328,32.0008 32.0008,32.0008 17.6728,0 32.0008,-14.328 32.0008,-32.0008l0 -352.785zm-137.499 -365.126l-566.501 -177.032 0 -65.4225c3.14292,0.0011811 6.33898,0.470079 9.49843,1.45394l566.502 177.033 0 65.4213c-3.14292,-0.0011811 -6.34016,-0.470079 -9.49961,-1.45394zm-352.876 7.77166l-213.625 -66.7583 0 -65.4225c3.14292,0.0011811 6.33898,0.470079 9.49843,1.45394l204.127 63.7902 0 66.9367zm1130.38 -66.7583l-213.625 66.7583 0 -66.9367 204.127 -63.7902c3.15945,-0.983859 6.35552,-1.45276 9.49843,-1.45394l0 65.4225zm-362.375 113.243l-204.125 63.789c-3.15945,0.983859 -6.3567,1.45276 -9.49961,1.45394l0 -65.4213 213.625 -66.7583 0 66.9367zm362.375 -231.288l-566.501 177.032c-3.15945,0.983859 -6.3567,1.45276 -9.49961,1.45394l0 -65.4213 566.502 -177.033c3.15945,-0.983859 6.35552,-1.45276 9.49843,-1.45394l0 65.4225z"/>
  <path class="fil2" d="M1024.06 300.557l766.555 229.224c-3.52796,11.5925 -13.0417,19.7162 -24.124,22.0217l-733.21 223.149 0.0377953 0.124016c-7.29686,2.22047 -14.7732,1.70433 -21.3307,-0.955513l-733.237 -223.158 -0.0673229 0.114567c-16.9075,-5.14489 -27.8292,-5.73426 -22.6843,-22.6417l768.061 -227.879z"/>
  <polygon class="fil1" points="441.902,1439.72 314.89,1404.53 315.051,1475.95 442.062,1514.45 "/>
  <polygon class="fil1" points="315.743,1371.61 368.002,1386.13 368.002,1318.73 315.743,1304.2 "/>
  <path class="fil1" d="M400.003 1327.59l0 67.4044 150.101 41.602 0 -67.4044 -94.1375 -26.0906c-1.61811,-0.194882 -3.16299,-0.633071 -4.59567,-1.27441l-51.3674 -14.237z"/>
  <path class="fil1" d="M558.727 1472.1l-84.8245 -23.5099 -0.389764 79.6371 150.101 45.6827 0.389764 -83.7178 -58.8969 -16.324c-2.29016,-0.140551 -4.44922,-0.764174 -6.37914,-1.76811z"/>
  <polygon class="fil1" points="582.104,1445.47 710.103,1480.95 710.103,1413.54 582.104,1378.07 "/>
  <path class="fil1" d="M784.067 1534.55l-128.063 -35.4945 0.0637796 80.8123 127.999 38.9551 -0.0637796 -82.8237c0,-0.488977 0.022441,-0.972048 0.0649607,-1.44921z"/>
  <polygon class="fil1" points="742.104,1489.82 879.998,1528.03 879.998,1460.63 742.104,1422.41 "/>
  <polygon class="fil1" points="1000.85,1595.31 816.003,1543.4 814.137,1628.86 998.987,1685.55 "/>
  <path class="fil1" d="M911.974 1536.9l86.1272 23.7732 0 -67.4044 -86.1024 -23.7662 0 66.4997c0,0.301181 -0.00826772,0.6 -0.0248032,0.897638z"/>
  <path class="fil1" d="M815.907 1409.76l178.807 47.9977 2.92677 -7.19292 -0.779528 -72.2256 -15.8882 10.3913c-19.6914,7.4941 -41.2051,9.94371 -62.2004,8.76615 -17.7272,-0.99567 -35.3292,-4.57205 -52.2331,-9.94725 -17.5843,-5.59134 -34.5567,-13.2024 -50.537,-22.4516l0 42.8989c0,0.596457 -0.0330709,1.18465 -0.0956694,1.76339z"/>
  <path class="fil1" d="M784.002 1400.92l0 -57.5611c-3.46299,-2.73898 -6.8563,-5.563 -10.1764,-8.47087 -5.25119,-4.60158 -10.3205,-9.41339 -15.1772,-14.4295 -6.78308,-7.00749 -13.1799,-14.4354 -19.063,-22.2449 -5.7189,6.00709 -12.2256,11.2547 -19.448,15.6307 -18.1642,11.0055 -39.0461,15.4394 -60.1489,14.4945 -1.32874,-0.0590552 -2.65748,-0.13937 -3.98504,-0.239764l0 37.3441 127.999 35.4768z"/>
  <path class="fil1" d="M624.003 1356.58l0 -34.7575c-1.77284,-0.555119 -3.53622,-1.13858 -5.2878,-1.75158 -2.31851,-0.811418 -4.61811,-1.6748 -6.89882,-2.58544 -34.9796,-13.9654 -65.9434,-39.3461 -88.8568,-69.0615 -6.55276,-8.49804 -12.6602,-17.439 -17.7414,-26.9032 -2.88662,1.94764 -5.8193,3.82205 -8.80631,5.6315 -5.38819,3.26457 -11.087,5.99056 -17.002,8.15906 -1.82126,0.667323 -3.65788,1.2815 -5.50748,1.84134l0 77.8241 150.101 41.6032z"/>
  <path class="fil1" d="M441.902 1306.1l0 -64.3347c-1.8815,0.0011811 -3.76063,-0.0401575 -5.63859,-0.125197 -16.5366,-0.740552 -32.8311,-4.73504 -48.1725,-10.8591 -12.9957,-5.18741 -46.9524,-26.4591 -73.3713,-44.5926l0 84.8446 127.182 35.067z"/>
  <path class="fil1" d="M1056 1386.89l0 71.6823 153.897 -42.6544 0 -39.3792c-9.24568,4.23898 -18.7441,7.93229 -28.4362,11.015 -16.904,5.3752 -34.5059,8.95158 -52.2331,9.94725 -19.2414,1.07953 -38.9174,-0.88819 -57.228,-6.99331l-15.9992 -3.61772z"/>
  <path class="fil1" d="M1136 1469.5l-86.4131 23.8465 0 67.4044 86.4379 -23.8536c-0.0165354,-0.297638 -0.0248032,-0.596457 -0.0248032,-0.897638l0 -66.4997z"/>
  <polygon class="fil1" points="1168,1528.03 1305.9,1489.82 1305.9,1422.41 1168,1460.63 "/>
  <path class="fil1" d="M1241.9 1407.05l141.748 -39.287 0 -39.3012c-19.6181,0.184252 -38.9292,-4.40197 -55.7823,-14.6126 -7.22245,-4.37599 -13.7291,-9.62363 -19.448,-15.6307 -5.88308,7.80945 -12.2799,15.2374 -19.063,22.2449 -11.6587,12.0425 -24.5575,22.9358 -38.3044,32.5193 -3.00709,2.09646 -6.05788,4.13268 -9.15001,6.10394l0 47.9634z"/>
  <polygon class="fil1" points="1465.9,1378.07 1337.9,1413.54 1337.9,1480.95 1465.9,1445.47 "/>
  <path class="fil1" d="M1415.65 1358.89l168.352 -46.6618 0 -72.606c-1.23071,-0.244488 -2.45788,-0.511418 -3.67914,-0.799607 -10.128,-2.39292 -19.826,-6.27993 -28.7303,-11.6752 -2.95512,-1.79055 -5.79922,-3.73347 -8.5252,-5.82048 -5.35867,9.44765 -11.4059,18.5126 -18.0225,27.0921 -22.9134,29.7154 -53.8772,55.0973 -88.8568,69.0615 -5.29016,2.11299 -10.6843,3.96733 -16.1646,5.5252 -1.45158,0.412205 -2.91024,0.805512 -4.37363,1.1752l0 34.7091z"/>
  <polygon class="fil1" points="1648,1327.59 1497.9,1369.2 1497.9,1436.6 1648,1395 "/>
  <path class="fil1" d="M1616 1303.36l111.998 -31.0418 0 -87.3497c-20.8193,16.1291 -53.3032,39.9154 -68.0871,45.8162 -13.5827,5.42126 -27.8988,9.17127 -42.4843,10.4776l-1.42677 0.119291 0 61.9784z"/>
  <polygon class="fil1" points="1736.14,1303.16 1680,1318.73 1680,1386.13 1736.14,1370.56 "/>
  <path class="fil1" d="M1741.28 1401.24l-135.178 38.4721 -0.0271654 73.4292 135.178 -41.7863 0.0271654 -70.115zm-509.28 142.16l-186.232 51.5457 0 89.4237 186.232 -56.3304 0 -84.639zm32.0008 -7.40316l-0.0295276 81.0001 127.999 -38.9551 0.0295276 -78.9886 -128.063 35.4945c0.0425197,0.477166 0.0649607,0.960237 0.0649607,1.44921zm310.1 -87.4146l-84.8245 23.5099c-1.92992,1.00394 -4.08898,1.62756 -6.37914,1.76811l-58.8969 16.324 0.0236221 80.9835 150.101 -45.6827 -0.0236221 -76.9028z"/>
 </g>
 <rect class="fil3" width="2048" height="2048"/>
</svg>
